HIERARCHY
ROOT Hips
{
	OFFSET -14.64140 90.27770 -84.91600
	CHANNELS 6 Xposition Yposition Zposition Zrotation Xrotation Yrotation
	JOINT Spine
	{
		OFFSET 0.00000 13.20850 -1.60436
		CHANNELS 3 Zrotation Xrotation Yrotation
		JOINT Spine1
		{
			OFFSET 0.00000 8.61716 0.00000
			CHANNELS 3 Zrotation Xrotation Yrotation
			JOINT Spine2
			{
				OFFSET 0.00000 8.61717 0.00000
				CHANNELS 3 Zrotation Xrotation Yrotation
				JOINT Spine3
				{
					OFFSET 0.00000 8.61717 0.00000
					CHANNELS 3 Zrotation Xrotation Yrotation
					JOINT Neck
					{
						OFFSET 0.00000 11.07920 1.10792
						CHANNELS 3 Zrotation Xrotation Yrotation
						JOINT Neck1
						{
							OFFSET 0.00000 7.08032 0.00000
							CHANNELS 3 Zrotation Xrotation Yrotation
							JOINT Head
							{
								OFFSET 0.00000 7.08031 0.00000
								CHANNELS 3 Zrotation Xrotation Yrotation
								End site
								{
									OFFSET 0.00000 0.00000 0.00000
								}
							}
						}
					}
					JOINT RightShoulder
					{
						OFFSET -0.01000 7.91373 5.19711
						CHANNELS 3 Zrotation Xrotation Yrotation
						JOINT RightArm
						{
							OFFSET -18.41580 0.00000 0.00000
							CHANNELS 3 Zrotation Xrotation Yrotation
							JOINT RightForeArm
							{
								OFFSET -29.11090 0.00000 0.00000
								CHANNELS 3 Zrotation Xrotation Yrotation
								JOINT RightHand
								{
									OFFSET -24.65040 0.00000 0.00000
									CHANNELS 3 Zrotation Xrotation Yrotation
									JOINT RightHandThumb1
									{
										OFFSET -5.35114 -0.85590 3.97906
										CHANNELS 3 Zrotation Xrotation Yrotation
										JOINT RightHandThumb2
										{
											OFFSET -4.52789 0.00000 0.00000
											CHANNELS 3 Zrotation Xrotation Yrotation
											JOINT RightHandThumb3
											{
												OFFSET -2.46976 0.00000 0.00000
												CHANNELS 3 Zrotation Xrotation Yrotation
												End site
												{
													OFFSET 0.00000 0.00000 0.00000
												}
											}
										}
									}
									JOINT RightHandIndex1
									{
										OFFSET -14.26970 0.00000 2.88139
										CHANNELS 3 Zrotation Xrotation Yrotation
										JOINT RightHandIndex2
										{
											OFFSET -5.48836 0.00000 0.00000
											CHANNELS 3 Zrotation Xrotation Yrotation
											JOINT RightHandIndex3
											{
												OFFSET -3.01859 0.00000 0.00000
												CHANNELS 3 Zrotation Xrotation Yrotation
												End site
												{
													OFFSET 0.00000 0.00000 0.00000
												}
											}
										}
									}
									JOINT RightHandMiddle1
									{
										OFFSET -14.26970 0.00000 -0.09147
										CHANNELS 3 Zrotation Xrotation Yrotation
										JOINT RightHandMiddle2
										{
											OFFSET -6.17441 0.00000 0.00000
											CHANNELS 3 Zrotation Xrotation Yrotation
											JOINT RightHandMiddle3
											{
												OFFSET -3.56743 0.00000 0.00000
												CHANNELS 3 Zrotation Xrotation Yrotation
												End site
												{
													OFFSET 0.00000 0.00000 0.00000
												}
											}
										}
									}
									JOINT RightHandRing1
									{
										OFFSET -12.69180 0.00000 -3.06433
										CHANNELS 3 Zrotation Xrotation Yrotation
										JOINT RightHandRing2
										{
											OFFSET -5.62556 0.00000 0.00000
											CHANNELS 3 Zrotation Xrotation Yrotation
											JOINT RightHandRing3
											{
												OFFSET -3.56744 0.00000 0.00000
												CHANNELS 3 Zrotation Xrotation Yrotation
												End site
												{
													OFFSET 0.00000 0.00000 0.00000
												}
											}
										}
									}
									JOINT RightHandPinky1
									{
										OFFSET -11.11390 0.00000 -6.03719
										CHANNELS 3 Zrotation Xrotation Yrotation
										JOINT RightHandPinky2
										{
											OFFSET -4.52789 0.00000 0.00000
											CHANNELS 3 Zrotation Xrotation Yrotation
											JOINT RightHandPinky3
											{
												OFFSET -2.46976 0.00000 0.00000
												CHANNELS 3 Zrotation Xrotation Yrotation
												End site
												{
													OFFSET 0.00000 0.00000 0.00000
												}
											}
										}
									}
								}
							}
						}
					}
					JOINT LeftShoulder
					{
						OFFSET 0.01000 7.91373 5.19711
						CHANNELS 3 Zrotation Xrotation Yrotation
						JOINT LeftArm
						{
							OFFSET 18.41580 0.00000 0.00000
							CHANNELS 3 Zrotation Xrotation Yrotation
							JOINT LeftForeArm
							{
								OFFSET 29.11090 0.00000 0.00000
								CHANNELS 3 Zrotation Xrotation Yrotation
								JOINT LeftHand
								{
									OFFSET 24.65040 0.00000 0.00000
									CHANNELS 3 Zrotation Xrotation Yrotation
									JOINT LeftHandThumb1
									{
										OFFSET 5.35114 -0.85590 3.97906
										CHANNELS 3 Zrotation Xrotation Yrotation
										JOINT LeftHandThumb2
										{
											OFFSET 4.52789 0.00000 0.00000
											CHANNELS 3 Zrotation Xrotation Yrotation
											JOINT LeftHandThumb3
											{
												OFFSET 2.46977 0.00000 0.00000
												CHANNELS 3 Zrotation Xrotation Yrotation
												End site
												{
													OFFSET 0.00000 0.00000 0.00000
												}
											}
										}
									}
									JOINT LeftHandIndex1
									{
										OFFSET 14.26970 0.00000 2.88139
										CHANNELS 3 Zrotation Xrotation Yrotation
										JOINT LeftHandIndex2
										{
											OFFSET 5.48836 0.00000 0.00000
											CHANNELS 3 Zrotation Xrotation Yrotation
											JOINT LeftHandIndex3
											{
												OFFSET 3.01859 0.00000 0.00000
												CHANNELS 3 Zrotation Xrotation Yrotation
												End site
												{
													OFFSET 0.00000 0.00000 0.00000
												}
											}
										}
									}
									JOINT LeftHandMiddle1
									{
										OFFSET 14.26970 0.00000 -0.09147
										CHANNELS 3 Zrotation Xrotation Yrotation
										JOINT LeftHandMiddle2
										{
											OFFSET 6.17440 0.00000 0.00000
											CHANNELS 3 Zrotation Xrotation Yrotation
											JOINT LeftHandMiddle3
											{
												OFFSET 3.56744 0.00000 0.00000
												CHANNELS 3 Zrotation Xrotation Yrotation
												End site
												{
													OFFSET 0.00000 0.00000 0.00000
												}
											}
										}
									}
									JOINT LeftHandRing1
									{
										OFFSET 12.69180 0.00000 -3.06433
										CHANNELS 3 Zrotation Xrotation Yrotation
										JOINT LeftHandRing2
										{
											OFFSET 5.62556 0.00000 0.00000
											CHANNELS 3 Zrotation Xrotation Yrotation
											JOINT LeftHandRing3
											{
												OFFSET 3.56744 0.00000 0.00000
												CHANNELS 3 Zrotation Xrotation Yrotation
												End site
												{
													OFFSET 0.00000 0.00000 0.00000
												}
											}
										}
									}
									JOINT LeftHandPinky1
									{
										OFFSET 11.11390 0.00000 -6.03719
										CHANNELS 3 Zrotation Xrotation Yrotation
										JOINT LeftHandPinky2
										{
											OFFSET 4.52789 0.00000 0.00000
											CHANNELS 3 Zrotation Xrotation Yrotation
											JOINT LeftHandPinky3
											{
												OFFSET 2.46976 0.00000 0.00000
												CHANNELS 3 Zrotation Xrotation Yrotation
												End site
												{
													OFFSET 0.00000 0.00000 0.00000
												}
											}
										}
									}
								}
							}
						}
					}
					JOINT pCube4
					{
						OFFSET 0.00000 10.91090 1.10792
						CHANNELS 3 Zrotation Xrotation Yrotation
						End site
						{
							OFFSET 0.00000 0.00000 0.00000
						}
					}
				}
			}
		}
	}
	JOINT RightUpLeg
	{
		OFFSET -9.98441 0.00000 0.00000
		CHANNELS 3 Zrotation Xrotation Yrotation
		JOINT RightLeg
		{
			OFFSET 0.00000 -42.11790 0.00000
			CHANNELS 3 Zrotation Xrotation Yrotation
			JOINT RightFoot
			{
				OFFSET 0.00000 -45.00020 -0.00001
				CHANNELS 3 Zrotation Xrotation Yrotation
				JOINT RightForeFoot
				{
					OFFSET 0.00000 -3.74820 0.00000
					CHANNELS 3 Zrotation Xrotation Yrotation
					JOINT RightToeBase
					{
						OFFSET 0.00000 0.06325 14.43120
						CHANNELS 3 Zrotation Xrotation Yrotation
						End site
						{
							OFFSET 0.00000 0.00000 0.00000
						}
					}
				}
			}
		}
	}
	JOINT LeftUpLeg
	{
		OFFSET 9.98441 0.00000 0.00000
		CHANNELS 3 Zrotation Xrotation Yrotation
		JOINT LeftLeg
		{
			OFFSET 0.00000 -42.11800 0.00000
			CHANNELS 3 Zrotation Xrotation Yrotation
			JOINT LeftFoot
			{
				OFFSET 0.00000 -45.00070 0.00000
				CHANNELS 3 Zrotation Xrotation Yrotation
				JOINT LeftForeFoot
				{
					OFFSET 0.00000 -3.74824 0.00000
					CHANNELS 3 Zrotation Xrotation Yrotation
					JOINT LeftToeBase
					{
						OFFSET 0.00000 0.06325 14.43110
						CHANNELS 3 Zrotation Xrotation Yrotation
						End site
						{
							OFFSET 0.00000 0.00000 0.00000
						}
					}
				}
			}
		}
	}
}
MOTION
Frames: 4
Frame Time: 0.050000
-0.04598631942275115 -0.019016935325841287 0.031023288339431257 0.02235264350905182 0.0031753593156625976 -0.048781749348248214 -3.952212933876914 -0.25786180635912775 -0.6797926050536134 -0.9230263659734954 3.5558537430067934 0.36119331079994416 -1.389749675319536 -2.3216314632735924 -0.8911351277411056 -0.5443016419403736 0.002950408798624689 -0.7873470568906173 0.43187915034038743 12.765677913404392 0.19141446210600033 0.1570284874897651 -0.01921470515337866 -1.229944691939246 0.2222373686459974 -14.862336444844289 -0.04999623160162985 -6.898226479917405 2.482806461048974 -13.804787808171753 68.4939714600166 0.18064232103184708 23.243852201058058 42.01518608410353 10.971547255095228 92.26183977011092 23.482382021119115 -0.38357030790912744 -5.430826123630839 4.515649278665758 -0.14414235201052028 -1.59871977335484 0.04178448369735297 -0.03882530825779628 -56.2207085893528 0.016438391301894333 -0.0032432021098141783 -56.262438771559204 -38.75859471843593 0.024894581165171983 -0.001482040030435356 0.047211091708394895 -0.01551221661739789 -0.03668537175602983 0.02577399821206227 0.041144015035332195 0.014392326288660369 -36.7266893909114 0.0310126413749452 0.020423943327090632 0.02486977479988003 -0.007705286488446386 -0.037052093024655536 -0.028268321482340444 0.009938349613044115 -0.03614659818978134 -19.732973750238536 -4.370646865838165e-05 -0.006120231857574986 -0.023339908871749287 0.02933112321874044 -0.03383479576370123 0.0016737411022412119 -0.017789473395441076 0.04392137305619274 24.055136831510456 -0.043250464758587986 -0.02619279016349684 28.903027164366463 0.041531800411003926 0.04228811042901118 28.881666579724726 -0.01841350508135053 -0.016382665792647983 5.002625382268276 1.279941418058334 11.526782652422872 -67.86259751281992 28.409032587033764 -7.137403675026358 -2.7292288474261923 -2.6284327337236615 -49.10308694872327 -15.839857005909742 3.276399071623913 0.847735549539862 -0.46429270714722365 0.05914520576179051 -8.119648783191412 -0.022348191995812047 -0.04874723124027687 44.56380413042787 -0.030314810042085506 -0.019661277477432234 44.55862821971759 12.440956929354442 -0.026215610597998488 -0.013695986024358566 0.020072481557154 0.024933938660658954 9.416527120851451e-05 0.01651380892284731 -0.00648962661048568 -0.002309930710785211 11.150632696187534 -0.04478296728976561 0.002060708965381427 -0.025708101617322766 -0.046558060539769165 0.02334017286447277 -0.02500221146951456 0.01814987443731117 0.015247741671019345 4.796898490059657 0.04724435993441015 -0.01047248513647585 -0.048400431112665114 0.00904875449188368 -0.0045666092724851335 0.018345357667925933 -0.049949421349051976 -0.02173357396641047 -5.616208849319117 0.04172902201248578 -0.010502349496586261 -6.74131403677095 -0.022321811421338926 0.010331288311839047 -6.767495442509578 0.036610883112396374 0.02998918957144704 -0.03586733498236349 -0.028432478367449616 -0.0030148292202199856 8.011082828399644 3.499830169704278 -19.218629630296135 0.046825261963349275 10.42046762031893 -0.017286544582516352 -5.652157734349896 -15.680514508707052 3.225371978645728 0.031185452266450853 0.01766727814500141 -0.004995707294016724 0.019186355316553324 4.690480577335085 -0.046011916016793046 12.453028636602983 -8.240898194111528 6.900880655437874 0.037003728379298204 46.34406947269451 0.017779448473567903 -4.346570951473241 -14.741963486478669 -3.859534298349816 0.004258494005024383 0.002119627373817237 -0.03510211179544776 0.04646322555801837 -10.73609842648965 -0.016200084524706962 
-0.022173144606698017 -0.001121036146073772 -0.01268886252165333 -0.03412842463685032 -0.005757008174447736 -0.01340785465105514 -3.857685181302069 -0.36125424028294656 -0.6851837543981666 -0.9890997823343729 3.5120718465827565 0.35938045422517345 -1.4383725845963398 -2.3536832291771126 -0.8417307966562949 -0.4622332556256654 0.027436485360790006 -0.7896211243418754 0.5055324140411116 12.741304396971916 0.06005339382415426 0.16860596329602248 0.00926586623372898 -1.4057451326307107 0.20256211240611294 -14.805787758444533 -0.14451514277716418 -6.810913775623571 2.5112060327691315 -13.946562089744951 68.03870044247793 -0.5447829398726929 22.34458854982941 43.04774866663723 11.033762848577854 91.69991508596084 23.014468006184366 -0.3675814598675281 -5.436556248595727 4.518262459950464 -0.17626729556736861 -1.5681829028087673 -0.035859542300015416 0.008682163715324384 -56.24863089447623 0.003843285731930835 -0.049418397471770674 -56.23654387227152 -38.73458551856768 -0.04199331273696026 0.00969485266312772 -0.019418020177229586 0.0429819993923152 0.020713646742522882 0.001742418017921663 0.028264528623639686 -0.022344292793565465 -36.68179456032387 -0.02939334641771335 0.018753445173563678 0.016504631765668885 -0.002808588470609698 -0.028267914693059074 -0.03586870488314087 -0.0043955081440413 -0.03303939392804192 -19.76649573182757 0.015168877545502413 0.045007318688286536 -0.024997426299403575 -0.03769036214502847 -0.035278737189989924 0.038352386845494725 0.03721963827420851 0.02522908256355726 24.072313340861903 -0.011116023938149441 -0.030188427717264255 28.906410730681053 0.020153616893640345 0.007610842017307827 28.892497218945042 0.009747710300848865 -0.027767560961635906 4.728467839176106 1.2604573888099098 11.625136320667687 -68.80957171912921 28.40954309639664 -5.621789533932736 -2.9072671349162493 -2.745531426347038 -46.66298058981611 -15.49635005323544 3.931194964340591 0.3641194533945849 -0.5212272952975288 0.1153763844895721 -8.169261744978545 -0.03261419092643057 0.04129372858319921 44.517684677004496 0.048177503471566914 0.016028272938450983 44.57750261444994 12.486034230617182 -0.011345135075950096 -0.04312802418663154 -0.02350563500143448 -0.04297218961693869 0.00826351258338988 -0.005386819156212734 0.03439688911711772 0.010712805234152542 11.091743896054805 0.0038316146144576784 0.029947753626606493 -0.0005483253536855269 0.009410730149208076 -0.02869377278283114 0.015674176108726446 -0.019266643733509763 -0.03289985217487284 4.745534211455626 0.033375337247501496 0.010765149719068477 -0.008691357752460847 -0.011017547399432318 0.049924726100182525 -0.004362467299570815 -0.013602313188013675 -0.021220615767467216 -5.621970174900544 -0.04145786177903811 0.01715749638182173 -6.706364743775771 -0.013621697992294474 0.042454069552198374 -6.6770577572671215 0.026496201512593593 0.032588829298530804 -0.02130155314905366 0.005078729672156327 -0.04426331832261553 8.07113359120166 3.500232141070313 -19.171932409328114 0.024269767875186504 10.42020222168293 0.04417767569820909 -5.5896090532088065 -15.700117889287792 3.2419047115405317 0.02583289496537784 -0.010920002380646023 -0.011061588179037756 0.04275371296589877 4.716233577777527 0.03733923704843266 12.470407631583853 -8.239462938347373 6.892822573169719 0.01200898572676418 46.41020163762678 0.029107626238069038 -4.367365731422572 -14.73756636265587 -3.853306196928312 0.013543838860683537 -0.011657979615115614 -0.007307408990768117 0.03975654036985084 -10.70688754284578 0.01701782211251322 
0.00136585231111464 0.005009655757392938 0.01723686756087955 -0.00052492910118053 0.0188965157737835 -0.018584371129795278 -3.904380642202565 -0.5250819066346232 -0.6140644437521807 -0.9003851219554535 3.489136301791506 0.3311930357128087 -1.425957121121691 -2.3615662936217987 -0.8354798372261293 -0.4240516585088601 -0.005285650895704284 -0.8076784025839155 0.5064565477073544 12.694027915168085 0.03464922354808039 0.12284674665146177 0.03347325775038165 -1.5466555668593118 0.19444544648755227 -14.740846878990912 -0.0958996284039654 -6.791826364089261 2.453821005695706 -14.133217017110983 67.61143921126467 -1.2680228379132221 21.41120408602657 43.451563312498216 11.150364159474444 91.04657542255003 22.662151288541978 -0.42484244509002556 -5.526122290340344 4.535511320678551 -0.09395218138768514 -1.596880194476181 0.04540203927773932 0.04780877302728123 -56.226627789846965 0.04267134862035316 -0.008335813703904463 -56.26965357281965 -38.80558373378205 -0.037643408584671946 -0.0038362690746173056 -0.029511807966837427 -0.02226546107985132 -0.001700032872675954 0.020270279627694072 0.015575346058947703 0.02469943400156137 -36.72390701565517 0.02640020000495874 -0.00952496306844641 0.011242580814991179 0.020164666043851236 -0.00017242946007239157 -0.036634578911271726 -0.011022182101020734 0.01185342691034111 -19.75617664265105 -0.021726869468513984 -0.037749188361737705 -0.03351387131410861 -0.01843895878110051 -0.036004890098168124 -0.014968262435830496 0.03781672817052485 -0.04285583387920473 24.04634843452955 0.006965730509238235 0.03933406809130695 28.870895905936464 -0.009867250829807469 0.04114334993135386 28.82343013767984 0.008426537550749541 0.017559257362250023 4.4089668602285075 1.1950779839899028 11.68645422352079 -69.12126943023112 28.421639589283178 -4.572797286006097 -3.0355969180850564 -2.9172886088395593 -44.96760793113036 -15.298612437225525 4.3693511558532885 0.06023201782191141 -0.5241184488108795 0.050402899612733996 -8.150018195898905 0.006253966236814039 0.03875045160381859 44.61234236243879 0.021978126441557066 0.0033671364909692186 44.59331955745549 12.498054272974828 -0.040038909142277715 -0.047330349573234246 0.04102553678412817 -0.02375678748090106 0.031724001283603226 -0.03988848615650848 -0.00593249150758775 -0.0007057849208298224 11.067611171284977 0.0032711207670781573 -0.02969770462430758 0.010926898956711636 0.026690782480384496 -0.030388409406948563 0.030885089193231505 -0.0032629653734740204 -0.014859268203518234 4.797784086725546 -0.016836821304769597 -0.006945384256689373 -0.017211239770318375 -0.032991665080956016 -0.0038730589159876685 0.023659444158121205 -0.01775666300089592 -0.04991217510865648 -5.620083053786653 0.017553732793657916 0.04428442405686903 -6.720506665175898 0.026215784164979623 0.006130764712223211 -6.709470017253108 0.041017820528595726 -0.015436915905909442 -0.044679519162452545 9.174163411047191e-05 0.035165549263558055 8.089945648153313 3.46336425039584 -19.192237750237947 0.028976018364314345 10.391020037926188 -0.005481738288630727 -5.649981683000564 -15.674012313258757 3.190956667477006 0.04698813021814636 -0.01095258791011245 -0.0353262846870282 0.0335053915340836 4.685954738124537 -0.003400896154651861 12.476317181635254 -8.26133967905569 6.87597735229682 -0.020472185017746468 46.41148278807137 -0.019376599080142547 -4.351560102967472 -14.7063372838454 -3.843315911181834 0.015807120664922007 0.031094674808465356 0.027414140704930035 -0.04181713017209542 -10.759467597572682 -0.01228720198799075 
0.041154761966339826 -0.04049192097827459 -0.021739549941869725 -0.03823920180559865 0.023243576837897125 -0.027547306726378087 -3.842927961924712 -0.6773943815758742 -0.6195146398500183 -0.9382216761621937 3.5084331148131325 0.38680840970791547 -1.4617331359994339 -2.3236955881047052 -0.8609175254521809 -0.43651895053990586 0.018242797091224852 -0.7856754217704225 0.6181699145326272 12.774057393715799 -0.05126032484695781 0.14641572277316625 0.1263632115403922 -1.7081172751624847 0.28233691133301964 -14.609131974296908 -0.08404867078103842 -6.728752224919267 2.462200324226222 -14.195340541693094 66.99725431817131 -1.9473795198945247 20.68736152012998 42.7634923508572 11.01544714621327 90.3462733293283 22.29552015301594 -0.427884765702707 -5.465101746978664 4.546564113058211 -0.12726742585917752 -1.5734817204880787 -0.025663215465690063 -0.03257038003994796 -56.23868117514169 0.049895978080492294 0.02274295865840426 -56.18504021392719 -38.74881631716008 -0.02810299067811785 -0.007561970609171614 -0.046579577740878716 0.03494175215912562 -0.0012991266217830812 0.029660845136792582 -0.03731815888938553 0.044340626232883255 -36.67286548522513 -0.020291562829198733 -0.02308521394219924 0.00802820479828919 -0.038838569850591816 0.03591105372042796 -0.007112950277656503 -0.0011585676561134514 -0.032101709214014694 -19.764925923859792 0.018907971516891296 -0.02052889220908077 0.01850376198173758 0.04384689741613217 0.03457730871254631 0.00768703770678672 0.007850045518390815 0.02123493258781378 24.06353548769094 -0.008020381501615681 0.022318908007894496 28.816313813433453 -0.030812966580997615 -0.005995609354360828 28.86768477624217 0.03540236951740862 -0.008719381504364517 4.337912335790517 1.180187961445336 11.823688541855791 -69.07651776136927 28.258793820828856 -4.10335906064772 -3.293660992983473 -3.104725706566603 -44.24933406724365 -14.961283146895635 4.413474093416462 -0.1412578609186138 -0.44824127907305605 0.1065069304431136 -8.106331442618119 -0.034297505360319766 0.03436909699095821 44.56630041839349 0.00769532954623753 -0.011810157686260318 44.56654461509526 12.466292698037403 0.007544224334482263 0.006436115641723208 0.029609645409660323 0.009271559194945699 0.01922891360407981 -0.046936060655976594 -0.028703364549250647 -0.04865793729054553 11.144123321846504 -0.0009919355121869265 0.04226915762996751 0.008517726995022687 -0.0018687814781490652 -0.04061926862127256 0.014841426317077114 -0.0068645939391734 -0.02608049328669228 4.80731047705064 -0.005618266378416639 -0.003484638502360594 -0.00855347999798022 0.01884208541815767 -0.04084463643678628 0.04394920918404005 -0.0017984378589105464 -0.02238821174985834 -5.58742096789557 0.022823559725432804 -0.02551167943414889 -6.761320874588247 0.0004614845217996064 -0.026382610878783457 -6.755529056716736 -0.028357517290030682 0.012384428399680887 0.0426656523946318 0.007320072729277283 -0.044444205154164605 8.033395373350453 3.5172592981646202 -19.25190281258328 0.003683877868730777 10.377114425875618 -0.025950586901291654 -5.612508797737536 -15.635835166374191 3.230539414499839 0.016808418325409892 -0.012156614416881774 0.003544252732092976 0.03828782908702096 4.669878965975296 0.0007848092529615134 12.470889714589154 -8.244783798882164 6.862061389510851 0.049920005688687256 46.36899596009228 -0.012814567081492818 -4.31286499469023 -14.701624711969504 -3.8010996408726956 -0.01217179638980757 -0.007323015539474 -0.032177462334865306 -0.03800215895548389 -10.775810768876116 0.006315557794708838 
